<svg xmlns="http://www.w3.org/2000/svg" height="27" width="120" viewbox="0 0 337.3 76"><path d="M339 18.5h-7L318 55.3l-16-36.8h-7.3l20 44a16.9 16.9 0 0 1-4 6.4 7.2 7.2 0 0 1-5 1.8 15.6 15.6 0 0 1-6.9-1.6l-2.2 5.2c1.5.8 3 1.3 4.4 1.7 1.5.3 3.1.5 5 .5 3.3 0 6-.9 8.4-2.8 2.3-1.9 4.4-5 6.3-9.6L339 18.5M274.7 17.9a20.7 20.7 0 0 0-8.4 2.3c-1.4.8-2.7 1.9-3.8 3.2-1.8 2-2.8 4.3-2.8 7V32c.2 1.3.6 2.5 1.4 3.5 1.9 2.8 4.6 4.8 8 5.8l9.3 2.9c2.2.7 4.2 2 6 3.7.4.6.7 1.3.8 2 .2 2-.3 3.6-1.4 5a8 8 0 0 1-4 2.6c-2.4.4-5 .4-7.5 0-4.2-1-8-2.6-11.5-5.3l-3.3 4.7a31.2 31.2 0 0 0 20 6.5c2-.3 4-.8 5.9-1.4 1.7-.7 3.2-1.7 4.5-3a11.7 11.7 0 0 0 2.3-14 9.2 9.2 0 0 0-3.3-3.4c-1.5-.9-3-1.6-4.7-2.1a72 72 0 0 1-14-6 4.1 4.1 0 0 1-1.8-2.4c-.7-2.4 0-4.4 2-6a9.5 9.5 0 0 1 6.1-1.8c4.7.2 9.1 1.6 13 4.2l3-5c-4.7-3-10-4.6-15.8-4.7M252 24.3v-5.8h-14V5.2h-6.7v13.3h-6v5.8h6v26.6c0 2.2.4 4.1 1 5.7a9.4 9.4 0 0 0 2.6 3.9c1.2 1 2.4 1.7 4 2.2 1.5.4 3.2.6 4.9.6a17 17 0 0 0 8-1.8v-5.6a12 12 0 0 1-3.2 1.2c-1 .2-2.1.3-3.3.3-2.2 0-4-.5-5.3-1.6-1.4-1.1-2-3-2-5.7V24.3h14M190.5.4h-6.6v62.2h6.6V37.4a15 15 0 0 1 3.7-10 11 11 0 0 1 4.2-2.8 14 14 0 0 1 5.3-1c4 0 7 1.2 9 3.6 2.1 2.3 3.2 5.6 3.2 9.7v25.7h6.6V35.2c0-2.6-.4-4.9-1.2-7.1a14.8 14.8 0 0 0-8.6-9.2c-2-.9-4.4-1.3-7-1.3-4 0-7 .8-9.4 2.5a20.3 20.3 0 0 0-5.8 6.1V.4M167 23a20.7 20.7 0 0 0-20-4.6 21 21 0 0 0-3.8 38.7 23 23 0 0 0 9.6 2.2c3.2 0 6.2-.8 9-2.3a24.7 24.7 0 0 0 8.3-7c.2 3.4 0 7-.7 10.5-.4 2.4-1.7 4.6-3.6 6.4-1.8 1.7-4 2.8-6.6 3.4-3.3.6-6.6.6-9.8.2-2.8-.6-5.6-1.6-8.3-3l-4-2.3-3 5.1c2.9 2.1 6 3.6 9.4 4.6 4.3 1.2 8.7 1.8 13.2 1.5 3.7-.3 7.2-1.3 10.5-3.1A17.3 17.3 0 0 0 176 60l.6-5V18.5H170v8zm-23.6 4.8c3.1-3 6.8-4.4 11.2-4.4 4.3 0 8 1.4 11 4.4 3.2 2.9 4.7 6.4 4.7 10.6 0 4.2-1.5 7.8-4.6 10.7-3 3-6.8 4.4-11.1 4.4-4.4 0-8.1-1.5-11.2-4.4-3-3-4.6-6.5-4.6-10.7 0-4.2 1.6-7.7 4.6-10.6"/><path d="M119.4 10.2c.8.7 1.7 1.1 2.8 1.2 1.1-.1 2-.5 2.8-1.2.8-.8 1.2-1.8 1.2-2.8 0-1.2-.4-2-1.2-2.9a3.5 3.5 0 0 0-2.8-1.1c-1 0-2 .3-2.8 1.1-.8.8-1.2 1.7-1.2 2.9 0 1 .4 2 1.2 2.8" fill="red"/><path d="M118.7 62.6h6.6V18.5h-6.6zM16.4 63h5.8L34 28.1l11.8 34.7h5.8L67 18.5h-6.8L48.7 53.9 36.8 18.4h-5.5L19.5 53.9 7.9 18.5h-7l15.5 44.4M107.1 25.5l-4.8 4.7c2.2 2.6 3.4 5.6 3.7 9h6.7c-.3-5.3-2.1-9.8-5.6-13.7M105.3 23.6c-3.4-3.2-7.4-5-12.1-5.6l-1.7-.2v6.8l1.7.2c2.7.5 5.1 1.7 7.3 3.6l4.8-4.8M88.8 24.6v-6.8c-5.3.3-9.8 2.2-13.7 5.8l4.7 4.6a15 15 0 0 1 9-3.6M78 30.1l-4.8-4.7a21.8 21.8 0 0 0-5.7 13.8H74c.3-3.4 1.6-6.5 3.8-9.1M74.1 41.8h-6.6c.3 5.3 2.2 9.9 5.7 13.8l4.7-4.7a15.4 15.4 0 0 1-3.8-9M88.8 56.5c-3.4-.3-6.4-1.5-9-3.7L75 57.5C79 61 83.5 62.9 88.8 63v-6.6"/><path d="M75 40.5a489.6 489.6 0 0 0 15.5 6.8c1.5 0 2.8-.7 3.8-1.7 1.8-1.8 2.6-4 2.4-6.4-.2-2-1-3.4-2.7-4.4a6 6 0 0 0-5.5-.4 185 185 0 0 0-13.5 6zm13.3 2c-.6-.6-.8-1.2-.8-2 0-.7.2-1.3.8-1.9.4-.5 1-.8 1.8-.7.8 0 1.4.2 2 .7.4.6.7 1.2.7 2 0 .7-.3 1.3-.7 1.8-.6.5-1.2.8-2 .8a3 3 0 0 1-1.8-.8" fill="red"/><path d="M91.5 56.4v6.7a22 22 0 0 0 13.7-5.7l-4.7-4.7a15.5 15.5 0 0 1-9 3.7"/></svg>
